<?xml version="1.0" encoding="utf-8"?>
<!-- Generator: Adobe Illustrator 22.1.0, SVG Export Plug-In . SVG Version: 6.00 Build 0)  -->
<svg version="1.1" id="Layer_1" xmlns="http://www.w3.org/2000/svg" xmlns:xlink="http://www.w3.org/1999/xlink" x="0px" y="0px"
	 viewBox="0 0 778.5 296.9" style="enable-background:new 0 0 778.5 296.9;" xml:space="preserve">
<style type="text/css">
	.st0{fill:#848484;}
	.st1{fill:#AFAFAF;}
</style>
<title>Artboard 1</title>
<path class="st0" d="M248.6,3c0.7,1,1.1,2.2,1.1,3.4c0,1.2-0.3,2.3-0.8,3.4c-0.5,1.2-1.2,2.3-2,3.2c-0.8,1-1.6,2-2.4,3
	c-5.4,7.8-10.3,15.9-14.6,24.4c-4.4,8.6-9.3,18.4-14.6,29.3c-3.2,6.7-6.3,13.5-9.3,20.1c-3,6.7-6,13.5-8.9,20.3
	c3.2-0.5,6.3-0.9,9.4-1.2s6.2-0.7,9.4-1c0.1,0,0.9-0.1,2.2-0.2s2.7-0.2,4-0.2s2.4,0,3.3,0.1s0.9,0.3,0.2,0.7
	c-0.4,0.3-0.9,0.6-1.4,0.8c-0.7,0.3-2.3,0.8-4.9,1.5c-4.1,1-8.2,2-12.3,3c-4.1,1-8.2,1.9-12.3,2.7c-3.7,8.8-7.4,17.8-11.2,27
	c-3.8,9.2-7.6,19.1-11.5,29.5c-3.4,9.4-6.9,18.8-10.5,28.1c-3.6,9.3-7.1,18.9-10.7,28.8c-1.4,3.3-2.6,6.5-3.6,9.6
	c-1.1,3.3-2.5,6.6-4.2,9.6c-0.1,0.2-0.3,0.4-0.5,0.3c-0.2-0.1-0.3-0.3-0.3-0.5c1.1-7.8,2.6-15.7,4.4-23.7c1.8-8,3.9-16.2,6.3-24.6
	c1.9-6.7,3.9-13.4,5.9-19.9c2-6.6,4.1-13.1,6.3-19.8c2.3-7.1,4.7-14.1,7.1-21.1s4.9-13.8,7.4-20.7c-8.8,1.3-17.5,2.7-26.1,4.4
	c-8.6,1.7-17.5,3.2-26.7,4.6c-1.1,0.3-2.3,0.5-3.4,0.6c-1.9,0.3-4,0.6-6.1,1c-2.6,0.5-5.4,1-8.6,1.5c-7.6,8-15.2,16-22.8,23.9
	S70.7,171,62.7,179.4c-2.2,2.4-4.4,4.8-6.6,7.2l-6.8,7.2c-1.9,1.8-3.6,3.3-5.1,4.6c-1.5,1.3-2.2,1.8-2.2,1.5c0.1-0.7,0.4-1.4,0.8-2
	c0.5-0.9,1.1-2,1.7-3s1.3-2.1,1.9-3.1s1.2-1.9,1.7-2.7c6.9-9.6,14-19,21.4-28.2c7.4-9.2,15.2-18.4,23.4-27.6
	c-9.5,1-19.1,2.2-28.7,3.4c-9.6,1.3-19.8,2.4-30.5,3.2c-5,0.4-10,0.7-15.2,0.9s-10.4,0.3-15.8,0c-0.1,0-0.7-0.1-1.7-0.2
	s-1.4-0.3-1.1-0.6s1-0.7,2.3-1s2.9-0.6,4.6-1s3.2-0.6,4.8-0.8s2.6-0.4,3.2-0.5c10.3-1.7,20.6-3.2,31-4.7s21.5-3.2,33.5-5.1
	c3.7-0.7,7.4-1.2,11.1-1.7c3.7-0.5,7.4-1.1,11.1-1.7c2.6-2.7,5.1-5.4,7.6-8.1s5-5.4,7.5-7.9c10-10.7,20.3-21,30.8-31.1
	s21.5-20.1,33.1-30c5.7-4.8,11.4-9.6,17.2-14.4s11.6-9.4,17.6-13.8c3.6-2.8,7.2-5.6,11-8.3s7.7-5.4,11.7-7.9c1.6-1.1,3.5-1.8,5.4-2
	C245.5-0.2,247.2,0.8,248.6,3z M182.2,112c0.4-1.2,0.8-2.5,1.3-3.6c0.8-1.8,1.6-3.9,2.6-6.4s2-5.1,3.2-7.9s2.4-5.5,3.4-8.1
	s2.1-5,3.1-7.2s1.7-3.9,2.2-5.2c1.5-3.4,3.3-7.3,5.2-11.6c2-4.3,4-8.7,6.2-13.1c2.2-4.4,4.3-8.7,6.5-12.9s4.2-8,5.9-11.3
	c-8.4,6.4-17.1,13.4-26.1,21s-17.9,15.6-26.9,24c-8.9,8.3-17.6,16.9-26.1,25.6s-16.5,17.3-24.1,25.9c6.4-0.9,12.6-1.8,18.7-2.8
	s12.3-1.9,18.7-2.8c4.3-0.6,8.6-1.2,12.9-1.8C173.4,113.2,177.7,112.6,182.2,112z"/>
<path class="st0" d="M313,12.9c0.2,0.3,0.3,0.7,0.1,1.2c-0.2,0.6-0.5,1.3-0.8,1.9c-0.3,0.7-0.6,1.4-1,2s-0.5,1.1-0.7,1.3
	c-3.9,7.1-8.1,14.1-12.5,20.8s-8.8,13.5-13.3,20.2c-4.8,7.1-9.7,14.2-14.6,21.1l-14.8,20.9c-6.5,9-13,17.9-19.7,26.7
	c-6.6,8.8-13.2,17.6-19.8,26.5c-1,1.4-2.1,2.8-3.1,4.2c-1.1,1.4-2.1,2.8-3.1,4.2c8.8-6.2,17.7-12.1,26.7-17.6
	c0.4-0.3,0.8-0.6,1.2-0.9c0.8-0.5,1.6-0.9,2.4-1.3c0.9-0.4,1.7-0.8,2.5-1.1s1.3-0.4,1.5-0.3s0.1,0.4-0.5,0.9c-0.6,0.5-1.2,1-1.8,1.6
	c-2.3,2-4.6,4-7,5.8c-2.4,1.8-4.7,3.7-7,5.6c-3.4,2.7-6.8,5.3-10.1,8c-3.3,2.7-6.6,5.5-9.9,8.4c-1.3,1-2.5,2.1-3.7,3.2
	c-1.2,1.1-2.4,2.3-3.7,3.4c-1,0.9-2.1,1.6-3.2,2.3c-1.2,0.6-2.6,0.7-3.8,0.2c-2.4-0.8-3.7-2.3-3.8-4.6c-0.1-2,0.4-4,1.4-5.7
	c1.1-2,2.1-3.8,3-5.2c7-11.1,14.6-22.1,22.7-33c6.4-8.5,12.3-16.6,17.9-24.3c5.5-7.7,11.4-15.6,17.5-23.8
	c5.1-6.9,10.2-13.7,15.4-20.4s10.5-13.4,15.9-20c3.8-4.6,7.6-9.2,11.4-13.9c3.7-4.7,7.7-9.1,11.9-13.4l1.1-1.1l2-2
	c0.6-0.6,1.3-1.2,2-1.6C312.2,12.9,312.7,12.8,313,12.9z"/>
<path class="st0" d="M296.9,142.1c-1,1.1-2.2,2.4-3.5,3.8s-2.6,2.7-3.9,3.9s-2,1.9-2.3,2.2c-5.1,4.5-10.3,8.8-15.7,13.1
	c-5.5,4.4-11.4,8.3-17.5,11.7c-3.1,1.8-6.3,3.4-9.5,4.9c-3.3,1.4-6.8,2.3-10.3,2.4c-3,0-5.9-1-8.1-3c-2.3-1.9-3.5-4.9-3-7.9
	c0.7-7,3.1-13.8,7.1-19.7c4-5.9,8.4-11.4,13.2-16.6c2.4-2.5,5-4.9,7.6-7.2c2.7-2.2,5.5-4.4,8.4-6.4c2.8-2,5.7-3.9,8.8-5.4
	c3.1-1.6,6.2-2.9,9.5-3.9c1.6-0.5,3.3-0.8,5-0.8c1.7-0.1,3.4,0.2,5,1c3,1.8,4.4,4.2,4.2,7.3c-0.4,3.5-1.6,6.8-3.6,9.6
	c-1,1.4-2,2.7-3,4s-2.1,2.6-3.2,3.8c-4.5,4.9-9.7,9.2-15.5,12.6c-4,2.2-8,4.2-12.2,6c-4.5,1.9-9.2,3.4-13.9,4.7
	c-2.8,3.7-4.9,7.8-6.1,12.2c4.2-0.1,8.3-1,12.1-2.5c4.6-1.8,9.1-4,13.4-6.5c4.5-2.6,8.8-5.4,13.2-8.2c4.3-2.9,8.3-5.4,11.8-7.7
	c0.2-0.1,1.1-0.7,2.5-1.7s2.9-2.1,4.5-3.3s3.7-2.7,6.4-4.5C298.3,140.3,297.9,141,296.9,142.1z M249.2,150.3c-1.1,1.1-2.1,2.4-3,3.6
	c-0.7,1-1.5,2.2-2.4,3.4c4.4-1.2,8.7-2.9,12.7-5.1c4.1-2.2,8-4.9,11.5-7.9c3.5-3.1,6.6-6.5,9.4-10.3c2.7-3.8,4.9-8,6.4-12.4
	c-6.7,3.2-12.9,7.3-18.3,12.4C259.9,139.2,254.5,144.6,249.2,150.3L249.2,150.3z"/>
<path class="st0" d="M355.9,109.1c0.4,0.5-0.2,1.8-1.8,3.8s-3.4,4.2-5.5,6.6c-2.1,2.3-4.1,4.5-6.1,6.5c-2,2-3.1,3.1-3.5,3.5
	c-2.8,2.9-5.7,5.8-8.6,8.7s-5.9,5.7-8.8,8.5c-0.3,0.2-1,0.9-2.1,1.9s-2.5,2.2-3.9,3.4s-2.9,2.5-4.3,3.7c-1,0.9-2.1,1.8-3.2,2.6
	c-0.3,0.9-0.5,1.8-0.6,2.8c-0.3,1.7-0.5,3.1-0.8,4.3c-0.3,1.9-0.6,4-1.1,6.3s-1.5,5.7-2.9,10.1c-0.3,0.6-0.5,1.3-0.7,1.9
	c-0.1,0.7-0.6,1.3-1.2,1.5c-0.4,0.2-0.7,0-1-0.7c-0.3-0.8-0.5-1.6-0.7-2.4c-0.2-0.8-0.3-1.7-0.4-2.6c-0.1-0.8-0.1-1.4-0.1-1.6
	c-0.3-2-0.4-4-0.5-6s-0.2-3.9-0.3-5.8c-4.5,3.2-9,6.2-13.6,9.1c-4.6,2.9-9.4,5.6-14.2,8.1c-0.6,0.2-1.1,0.5-1.6,0.8
	c-0.5,0.3-1.1,0.6-1.6,0.8c-0.2,0.1-0.6,0.3-1.1,0.5s-0.6,0-0.4-0.7c0.6-0.9,1.2-1.7,1.9-2.4c0.9-1,1.7-1.8,2.5-2.6
	c1.8-1.9,3.6-3.8,5.4-5.7c1.9-1.9,3.7-3.8,5.5-5.5c2.9-2.9,5.8-5.8,8.8-8.7c2.9-2.9,5.9-5.8,9-8.7c0.1-0.9,0.4-2.8,0.7-5.7
	s0.7-6.2,1-9.7s0.8-7.1,1.2-10.6s0.9-6.3,1.2-8.3c0.1-0.4,0.3-1.1,0.5-2.1c0.2-1,0.6-1.2,1.2-0.6c0.6,0.6,1,1.3,1.2,2.1
	c0.2,0.7,0.4,1.4,0.7,2.1c1,3.8,1.7,7.7,2.1,11.6c0.4,3.9,0.6,7.9,0.6,11.8c8-7,16.3-13.7,25-19.8c2.9-2,6-4,9.2-6.1
	c3.2-2.1,6.4-3.9,9.5-5.5l1.7-0.9C355.1,109,355.6,108.9,355.9,109.1z"/>
<path class="st0" d="M370.8,142.3c0.6-0.5,1.3-0.9,2-1.1c1.1-0.5,1.7-0.6,1.8-0.4v0.3c0,0.1-0.2,0.3-0.6,0.7
	c-4.7,4.3-9.5,8.4-14.4,12.1c-4.9,3.8-9.8,7.7-14.6,11.7c-2,1.8-4.6,4.1-7.5,6.9l-7.4,6.9c-0.8,0.6-1.6,1.3-2.6,2
	c-0.9,0.7-2,1.3-3,1.7c-1,0.4-2.1,0.6-3.2,0.5c-1.3-0.2-2.4-0.8-3.3-1.7c-1.1-1.1-1.5-2.7-1-4.2c0.3-1.6,0.8-3.2,1.4-4.8
	c1.6-3.8,3.6-7.4,5.9-10.8c2.7-4,5.7-8.1,9.1-12.3s6.9-8.3,10.5-12.3s7-7.6,10.2-10.8s5.9-5.8,8.2-7.8c2.3-2,3.8-3.2,4.6-3.4
	c0.6-0.4,1.4-0.4,2.1-0.2c0.3,0.1,0.5,0.3,0.7,0.6c0.2,0.3,0.2,0.6-0.1,1.2c-1.6,3.1-3.6,6.4-5.9,9.9s-4.8,7.3-7.4,11.1
	c-2.7,3.9-5.4,7.9-8.3,12c-2.9,4.1-5.6,8.3-8.3,12.7c1.1-0.9,2.7-2,4.6-3.3c1.9-1.3,3.4-2.4,4.6-3.1c3.7-2.4,7.3-4.8,10.9-7.2
	C363.1,146.7,366.9,144.4,370.8,142.3z M392.2,84.9c0.4,1,0.4,2.1,0.1,3.2c-0.3,1.1-0.8,2.1-1.5,3c-0.7,1-1.5,1.8-2.4,2.6
	c-0.8,0.7-1.7,1.3-2.7,1.7c-0.9,0.4-1.8,0.7-2.8,0.9c-1,0.2-2.1,0.2-3.1,0.2c-1-0.1-2-0.3-2.9-0.7c-0.9-0.4-1.6-1.2-1.9-2.1
	c-0.8-1.9-0.5-4.1,0.8-5.8c1.1-1.7,2.6-3.1,4.4-4.1c0.9-0.5,1.8-0.9,2.8-1.2c1.2-0.3,2.3-0.5,3.5-0.5c1.1,0,2.3,0.2,3.3,0.6
	C390.9,83,391.8,83.8,392.2,84.9z"/>
<path class="st0" d="M409,115.4c0.1,1.3-0.1,2.7-0.8,3.8c-0.6,1.2-1.4,2.2-2.4,3.2c-1,1-2,1.9-3.1,2.8c-1,0.8-1.9,1.9-2.6,3
	c-1.3,2.2-2.4,4.5-3.3,6.9c-1,2.4-1.8,4.8-2.6,7.3c-0.8,2.7-1.5,5.2-2.2,7.7s-1.4,5-2,7.5c-1.3,4.5-3.3,8.7-5.9,12.6
	c-2.6,3.9-6.1,7-10.2,9.2c-4.4,2.3-9.4,3.3-14.3,3c-2.2-0.3-4.4-1-6.3-2.1c-0.4-0.1-0.8-0.3-1.1-0.6c-0.6-0.4-1.3-0.8-2-1.1
	c-0.6-0.3-1.2-0.8-1.7-1.2c-0.5-0.5-0.6-0.8-0.5-1.1c0.1-0.3,0.8-0.2,2.1,0.3c0.7,0.3,1.5,0.5,2.3,0.7c1.8,0.5,3.7,0.8,5.6,0.8
	c3.5-0.2,6.9-1.5,9.7-3.6c2.6-2,4.8-4.4,6.6-7.1c1.8-2.6,3.1-5.6,3.5-8.8c0.5-2.9,1-5.9,1.4-9.1s0.9-6.3,1.2-9.6
	c-3.7,3.4-7.7,6.5-11.8,9.4c-4.7,3.3-9.3,6.4-13.8,9.1c-4.5,2.7-8.4,5-11.7,6.8c-3.3,1.7-5.2,2.4-5.5,2s1.4-1.9,5.1-4.7
	s8-6.1,13.2-10.1s10.4-8.4,15.9-13.3c4.9-4.3,9.3-9.1,13.1-14.3c1.1-1.8,2.3-3.5,3.4-5.2s2.4-3.5,3.8-5.2c1.4-1.4,3-2.6,4.7-3.6
	c1.7-1,3.6-1.5,5.6-1.5c1.7,0,3.4,0.7,4.6,1.9C408.1,112.1,408.9,113.7,409,115.4z"/>
<path class="st1" d="M194,206.5h32l10.7,49.1h1l18.4-25.6h1.3l18.5,25.6h1l10.7-49.1h32l-20.9,89.1h-27.2L256.9,272h-0.5l-14.3,23.5
	h-27.2L194,206.5z"/>
<path class="st1" d="M374.7,286.5h-32.1l-2.4,9h-30.9l26-89.1h46.8l26,89.1h-31L374.7,286.5z M368.3,262.8l-8.6-32.8h-2l-8.7,32.8
	H368.3z"/>
<path class="st1" d="M428.5,230h-26.5v-23.5h82.7V230h-26.5v65.5h-29.8V230z"/>
<path class="st1" d="M492.9,272h46.5c4,0,5.8-1.8,5.8-4.7s-1.9-4.6-6-4.6h-21.1c-14.9,0-27-10.2-27-28.1c0-20.6,14.1-28.1,28.4-28.1
	h52.7V230h-45.4c-3.4,0-5.8,1.3-5.8,4.5s2.4,4.7,5.8,4.7h19.8c17.1,0,28.4,10,28.4,28c0,16.9-12.7,28.4-29.3,28.4h-53.2L492.9,272z"
	/>
<path class="st1" d="M581.2,250.9c0-25.4,20.5-46,45.9-46.1c25.4,0,46,20.5,46.1,45.9s-20.5,46-45.9,46.1c0,0,0,0-0.1,0
	c-25.3,0.1-45.9-20.5-46-45.8C581.2,251,581.2,251,581.2,250.9z M643.6,250.9c-0.1-9.1-7.5-16.4-16.5-16.3
	c-9.1,0.1-16.4,7.5-16.3,16.5c0.1,9,7.4,16.3,16.4,16.3C636.3,267.4,643.6,260.1,643.6,250.9C643.6,250.9,643.6,250.9,643.6,250.9z"
	/>
<path class="st1" d="M682.7,206.5h29.8l35.4,46.3h0.9v-46.3h29.8v89.1h-29.8l-35.2-44.8h-1v44.8h-29.8V206.5z"/>
</svg>
