<?xml version="1.0" encoding="utf-8"?>
<!-- Generator: Adobe Illustrator 22.1.0, SVG Export Plug-In . SVG Version: 6.00 Build 0)  -->
<svg version="1.1" id="Layer_1" xmlns="http://www.w3.org/2000/svg" xmlns:xlink="http://www.w3.org/1999/xlink" x="0px" y="0px"
	 viewBox="0 0 24 24" style="enable-background:new 0 0 24 24;" xml:space="preserve">
<style type="text/css">
	.st0{fill:#65CBE5;}
</style>
<g>
	<path class="st0" d="M22.9,1H18c0-0.6-0.4-1-1-1s-1,0.4-1,1H8c0-0.6-0.4-1-1-1S6,0.4,6,1H1.1C0.5,1,0,1.5,0,2.1v20.8
		C0,23.5,0.5,24,1.1,24h21.8c0.6,0,1.1-0.5,1.1-1.1V2.1C24,1.5,23.5,1,22.9,1z M22,22H2V8h20V22z M22,7H2V3h4v1c0,0.6,0.4,1,1,1
		s1-0.4,1-1V3h8v1c0,0.6,0.4,1,1,1s1-0.4,1-1V3h4V7z"/>
	<path class="st0" d="M10.3,17.7c0.4,0.4,1,0.4,1.4,0l4.1-4.1c0.4-0.4,0.4-1,0-1.4s-1-0.4-1.4,0L11,15.7l-1.4-1.4
		c-0.4-0.4-1-0.4-1.4,0c-0.4,0.4-0.4,1,0,1.4L10.3,17.7z"/>
</g>
</svg>
